<svg id="visual" viewBox="0 0 900 600" width="900" height="600" xmlns="http://www.w3.org/2000/svg" xmlns:xlink="http://www.w3.org/1999/xlink" version="1.1"><path d="M818 600L809 600L809 514L827 514L827 429L809 429L809 343L809 343L809 257L845 257L845 171L836 171L836 86L845 86L845 0L900 0L900 86L900 86L900 171L900 171L900 257L900 257L900 343L900 343L900 429L900 429L900 514L900 514L900 600L900 600Z" fill="#f3e8ba"></path><path d="M611 600L638 600L638 514L665 514L665 429L584 429L584 343L512 343L512 257L638 257L638 171L656 171L656 86L656 86L656 0L846 0L846 86L837 86L837 171L846 171L846 257L810 257L810 343L810 343L810 429L828 429L828 514L810 514L810 600L819 600Z" fill="#ddc69a"></path><path d="M449 600L530 600L530 514L557 514L557 429L476 429L476 343L404 343L404 257L422 257L422 171L458 171L458 86L512 86L512 0L657 0L657 86L657 86L657 171L639 171L639 257L513 257L513 343L585 343L585 429L666 429L666 514L639 514L639 600L612 600Z" fill="#c7a57d"></path><path d="M197 600L260 600L260 514L305 514L305 429L287 429L287 343L260 343L260 257L197 257L197 171L233 171L233 86L332 86L332 0L513 0L513 86L459 86L459 171L423 171L423 257L405 257L405 343L477 343L477 429L558 429L558 514L531 514L531 600L450 600Z" fill="#b18564"></path><path d="M134 600L170 600L170 514L161 514L161 429L152 429L152 343L170 343L170 257L107 257L107 171L152 171L152 86L206 86L206 0L333 0L333 86L234 86L234 171L198 171L198 257L261 257L261 343L288 343L288 429L306 429L306 514L261 514L261 600L198 600Z" fill="#9a664e"></path><path d="M62 600L107 600L107 514L107 514L107 429L71 429L71 343L107 343L107 257L53 257L53 171L80 171L80 86L116 86L116 0L207 0L207 86L153 86L153 171L108 171L108 257L171 257L171 343L153 343L153 429L162 429L162 514L171 514L171 600L135 600Z" fill="#81483b"></path><path d="M0 600L0 600L0 514L0 514L0 429L0 429L0 343L0 343L0 257L0 257L0 171L0 171L0 86L0 86L0 0L117 0L117 86L81 86L81 171L54 171L54 257L108 257L108 343L72 343L72 429L108 429L108 514L108 514L108 600L63 600Z" fill="#682b2b"></path></svg>